<svg width="80" height="80" viewBox="0 0 80 80" fill="none" xmlns="http://www.w3.org/2000/svg">
<path d="M52.4444 12H27.5556C19.0622 12 12 19.0622 12 27.5556V52.4444C12 60.9378 19.0622 68 27.5556 68H52.4444C60.9378 68 68 60.9378 68 52.4444V27.5556C68 19.0622 60.9378 12 52.4444 12ZM26.7404 55.5556C24.572 55.5556 22.8142 53.7978 22.8142 51.6293V37.7009C22.8173 35.5356 24.5751 33.7778 26.7404 33.7778C28.9089 33.7778 30.6667 35.5356 30.6667 37.704V51.6324C30.6667 53.7978 28.9089 55.5556 26.7404 55.5556ZM26.6036 29.7862C24.2049 29.7862 22.6027 28.1871 22.6027 26.0529C22.6027 23.9187 24.2018 22.3196 26.868 22.3196C29.2667 22.3196 30.8689 23.9187 30.8689 26.0529C30.8689 28.1871 29.2698 29.7862 26.6036 29.7862ZM54.868 55.5556C52.7711 55.5556 51.0693 53.8538 51.0693 51.7569V43.6524C51.0693 40.3609 49.044 40 48.2849 40C47.5258 40 44.9933 40.1089 44.9933 43.6524V51.7569C44.9933 53.8538 43.2916 55.5556 41.1947 55.5556H40.9427C38.8458 55.5556 37.144 53.8538 37.144 51.7569V37.704C37.144 35.5356 38.9018 33.7778 41.0702 33.7778C43.2387 33.7778 44.9964 35.5356 44.9964 37.704C44.9964 37.704 45.8738 33.7778 51.8347 33.7778C55.6271 33.7778 58.6667 36.8173 58.6667 43.6524V51.7569C58.6667 53.8538 56.9649 55.5556 54.868 55.5556Z" fill="#F8F0E4"/>
</svg>
