<svg width="80" height="80" viewBox="0 0 80 80" fill="none" xmlns="http://www.w3.org/2000/svg">
<path d="M27.5556 12C18.9658 12 12 18.9658 12 27.5556V52.4444C12 61.0342 18.9658 68 27.5556 68H52.4444C61.0342 68 68 61.0342 68 52.4444V27.5556C68 18.9658 61.0342 12 52.4444 12H27.5556ZM58.6667 18.2222C60.384 18.2222 61.7778 19.616 61.7778 21.3333C61.7778 23.0507 60.384 24.4444 58.6667 24.4444C56.9493 24.4444 55.5556 23.0507 55.5556 21.3333C55.5556 19.616 56.9493 18.2222 58.6667 18.2222ZM40 24.4444C48.5898 24.4444 55.5556 31.4102 55.5556 40C55.5556 48.5898 48.5898 55.5556 40 55.5556C31.4102 55.5556 24.4444 48.5898 24.4444 40C24.4444 31.4102 31.4102 24.4444 40 24.4444ZM40 30.6667C37.5246 30.6667 35.1507 31.65 33.4003 33.4003C31.65 35.1507 30.6667 37.5246 30.6667 40C30.6667 42.4754 31.65 44.8493 33.4003 46.5997C35.1507 48.35 37.5246 49.3333 40 49.3333C42.4754 49.3333 44.8493 48.35 46.5997 46.5997C48.35 44.8493 49.3333 42.4754 49.3333 40C49.3333 37.5246 48.35 35.1507 46.5997 33.4003C44.8493 31.65 42.4754 30.6667 40 30.6667Z" fill="#F8F0E4"/>
</svg>
