<?xml version="1.0" encoding="UTF-8"?>
<svg id="Layer_1" data-name="Layer 1" xmlns="http://www.w3.org/2000/svg" viewBox="0 0 133 64">
  <defs>
    <style>
      .cls-1 {
        fill: #303030;
      }
    </style>
  </defs>
  <path class="cls-1" d="M84.34,0C73.84,0,71.1,3.1,71.1,17.17s2.73,17.1,12.89,17.1,13.35-2.87,13.35-17.12S94.84,0,84.34,0ZM83.95,14.7c-2.43,0-3.08-.69-3.08-4.09s.66-4.1,3.16-4.1,3.11.69,3.11,4.1-.76,4.09-3.19,4.09Z"/>
  <path class="cls-1" d="M11.27,57.58l1.43-8.81h8.87l.9,5.58c3.14-.72,6.5-1.38,10.07-1.96L22.99,0h-11.63L-.35,64c2.37-2.34,6.35-4.51,11.62-6.42ZM17.14,21.51l2.91,17.88h-5.81l2.91-17.88Z"/>
  <path class="cls-1" d="M47.76,50.5v-9.28l.05-1.85,2.82,10.9c3.62-.28,7.36-.49,11.18-.63l-3.19-10.89c2.39-1.45,4.23-2.92,5.51-6.25,1.28-3.32,1.92-7.14,1.92-11.44,0-4-.5-7.58-1.48-10.75-.99-3.18-2.47-5.69-4.44-7.54C58.16.92,55.78,0,53,0h-16.01v51.72c3.44-.48,7.04-.89,10.77-1.22ZM47.76,14.57h4.27c1,0,1.77.72,2.3,1.69.53.97.8,2.53.8,4.23,0,1.87-.26,3.95-.78,4.82-.52.88-1.29,1.31-2.33,1.31h-4.27v-12.05Z"/>
  <path class="cls-1" d="M112.84,52.63v-22.99l8.43,24.67c4.56,1.05,8.62,2.24,12.1,3.54V0h-8.93v35.18L112.61,0h-8.93v51.29c3.18.39,6.24.84,9.16,1.34Z"/>
</svg>